<svg xmlns="http://www.w3.org/2000/svg" viewBox="0 0 32 32" fill="none">
  <defs>
    <linearGradient id="carGradient" x1="0%" y1="0%" x2="100%" y2="100%">
      <stop offset="0%" style="stop-color:#3B82F6;stop-opacity:1" />
      <stop offset="100%" style="stop-color:#1D4ED8;stop-opacity:1" />
    </linearGradient>
  </defs>
  
  <!-- Background circle -->
  <circle cx="16" cy="16" r="15" fill="url(#carGradient)" stroke="#1E40AF" stroke-width="2"/>
  
  <!-- Car body -->
  <path d="M8 18h16c1.1 0 2-.9 2-2v-3c0-.6-.2-1.1-.6-1.5L23 9c-.4-.4-.9-.6-1.5-.6h-11c-.6 0-1.1.2-1.5.6L6.6 11.5c-.4.4-.6.9-.6 1.5v3c0 1.1.9 2 2 2z" fill="white"/>
  
  <!-- Car windows -->
  <path d="M9.5 12h13l-1.5-1.5h-10L9.5 12z" fill="#E5E7EB"/>
  
  <!-- Car wheels -->
  <circle cx="11" cy="20" r="2.5" fill="#374151" stroke="white" stroke-width="1"/>
  <circle cx="21" cy="20" r="2.5" fill="#374151" stroke="white" stroke-width="1"/>
  
  <!-- Wheel centers -->
  <circle cx="11" cy="20" r="1" fill="#6B7280"/>
  <circle cx="21" cy="20" r="1" fill="#6B7280"/>
  
  <!-- Car details -->
  <rect x="12" y="14" width="2" height="1" fill="#9CA3AF" rx="0.5"/>
  <rect x="18" y="14" width="2" height="1" fill="#9CA3AF" rx="0.5"/>
</svg>